<svg width="20" height="20" viewBox="0 0 20 20" fill="none" xmlns="http://www.w3.org/2000/svg">
<path fill-rule="evenodd" clip-rule="evenodd" d="M6.66667 5.00002H5.00001V4.16669H3.33334V6.66669H16.6667V4.16669H15V5.00002H13.3333V4.16669H6.66667V5.00002ZM16.6667 8.33335H3.33334V16.6667H16.6667V8.33335ZM13.3333 2.50002H6.66667V1.66669H5.00001V2.50002H3.33334C2.41286 2.50002 1.66667 3.24621 1.66667 4.16669V16.6667C1.66667 17.5872 2.41286 18.3334 3.33334 18.3334H16.6667C17.5871 18.3334 18.3333 17.5872 18.3333 16.6667V4.16669C18.3333 3.24621 17.5871 2.50002 16.6667 2.50002H15V1.66669H13.3333V2.50002ZM7.5 11.6667H5.83334V10H7.5V11.6667ZM9.16667 11.6667H10.8333V10H9.16667V11.6667ZM14.1667 11.6667H12.5V10H14.1667V11.6667ZM5.83334 15H7.5V13.3334H5.83334V15ZM10.8333 15H9.16667V13.3334H10.8333V15Z" fill="black"/>
</svg>
