<svg width="175" height="175" viewBox="0 0 175 175" fill="none" xmlns="http://www.w3.org/2000/svg">
<path d="M87.5 170C98.334 170 109.062 167.866 119.071 163.72C129.081 159.574 138.175 153.497 145.836 145.836C153.497 138.175 159.574 129.081 163.72 119.071C167.866 109.062 170 98.3341 170 87.5C170 76.666 167.866 65.938 163.72 55.9286C159.574 45.9193 153.497 36.8245 145.836 29.1637C138.175 21.5029 129.081 15.426 119.071 11.2799C109.062 7.13393 98.3341 5 87.5 5C76.666 5 65.938 7.13392 55.9286 11.2799C45.9193 15.4259 36.8245 21.5028 29.1637 29.1637C21.5029 36.8245 15.426 45.9192 11.2799 55.9286C7.13393 65.938 5 76.6659 5 87.5C5 98.334 7.13392 109.062 11.2799 119.071C15.4259 129.081 21.5029 138.175 29.1637 145.836C36.8245 153.497 45.9193 159.574 55.9286 163.72C65.938 167.866 76.6659 170 87.5 170L87.5 170Z" stroke="#FF6E6E" stroke-width="10"/>
</svg>
