<svg width="20" height="20" viewBox="0 0 20 20" fill="none" xmlns="http://www.w3.org/2000/svg">
<path fill-rule="evenodd" clip-rule="evenodd" d="M13.6976 1.66669C14.2432 1.66669 14.7663 1.88454 15.1483 2.26954L17.7323 4.85363C18.1171 5.23836 18.3332 5.76017 18.3332 6.30426C18.3332 6.84835 18.1171 7.37016 17.7323 7.75489L8.29776 17.1865C7.71569 17.8579 6.89059 18.2704 5.94534 18.3353H1.6665V17.5019L1.66921 13.9894C1.7402 13.1107 2.14873 12.2936 2.77192 11.7445L12.246 2.27055C12.6302 1.88405 13.1526 1.66669 13.6976 1.66669ZM5.88649 16.6707C6.33168 16.6392 6.74608 16.432 7.07883 16.0514L13.3804 9.74979L10.2518 6.62102L3.91326 12.958C3.57563 13.2566 3.36676 13.6744 3.33317 14.0565V16.6691L5.88649 16.6707ZM11.4304 5.44265L14.5589 8.57128L16.5538 6.57638C16.626 6.50421 16.6665 6.40632 16.6665 6.30426C16.6665 6.20219 16.626 6.10431 16.5538 6.03214L13.9674 3.44574C13.8961 3.37381 13.799 3.33336 13.6976 3.33336C13.5963 3.33336 13.4992 3.37381 13.4278 3.44574L11.4304 5.44265Z" fill="black"/>
</svg>
