<svg width="20" height="20" viewBox="0 0 20 20" fill="none" xmlns="http://www.w3.org/2000/svg">
<path d="M12.5133 3.10734C12.0726 3.04982 11.626 3.05508 11.1869 3.12297L10.7806 3.18547V0.273438H9.21875V3.18625L8.8125 3.12375C8.37333 3.05586 7.92674 3.0506 7.48609 3.10812L3.75 3.59375L5.28313 4.49156C6.1641 5.00746 7.18909 5.22251 8.20312 5.10422C8.20304 6.85529 8.8105 8.55214 9.92188 9.90531L10 10L10.0781 9.90531C11.1895 8.55214 11.797 6.85529 11.7969 5.10422C12.8109 5.22251 13.8359 5.00746 14.7169 4.49156L16.25 3.59375L12.5133 3.10734Z" fill="#54B88B"/>
<path d="M14.6887 4.50653C13.814 5.01128 12.8 5.22084 11.7969 5.10419C11.7969 6.85525 11.1895 8.55211 10.0781 9.90528L9.99998 9.99997L9.92186 9.90528C8.81048 8.55211 8.20302 6.85525 8.20311 5.10419C7.19997 5.22084 6.18594 5.01128 5.31123 4.50653C3.53115 5.19354 2.06108 6.50354 1.17431 8.19301C0.287544 9.88248 0.044407 11.8365 0.4901 13.6917C0.935793 15.547 2.03999 17.1773 3.59743 18.2796C5.15487 19.3819 7.05958 19.8812 8.95748 19.6847C9.65051 19.6126 10.3491 19.6126 11.0422 19.6847C12.9393 19.8794 14.8426 19.3792 16.3988 18.2767C17.9549 17.1743 19.0581 15.5446 19.5036 13.6903C19.9491 11.836 19.7065 9.88303 18.8209 8.19403C17.9354 6.50503 16.467 5.19477 14.6884 4.50653H14.6887Z" fill="#FF6E6E"/>
</svg>
