<svg width="20" height="20" viewBox="0 0 20 20" fill="none" xmlns="http://www.w3.org/2000/svg">
<path fill-rule="evenodd" clip-rule="evenodd" d="M7.49984 0.833374H12.4998C13.4203 0.833374 14.1665 1.57957 14.1665 2.50004V3.33337H16.6665C17.587 3.33337 18.3332 4.07957 18.3332 5.00004V6.66671C18.3332 7.58718 17.587 8.33337 16.6665 8.33337H16.5997L15.8332 17.5C15.8332 18.4205 15.087 19.1667 14.1665 19.1667H5.83319C4.91271 19.1667 4.16652 18.4205 4.1694 17.5692L3.39975 8.33337H3.33317C2.4127 8.33337 1.6665 7.58718 1.6665 6.66671V5.00004C1.6665 4.07957 2.4127 3.33337 3.33317 3.33337H5.83317V2.50004C5.83317 1.57957 6.57936 0.833374 7.49984 0.833374ZM3.33317 5.00004H5.83317H14.1665H16.6665V6.66671H3.33317V5.00004ZM5.07192 8.33337H14.9275L14.1694 17.4308L14.1665 17.5H5.83318L5.07192 8.33337ZM12.4998 2.50004V3.33337H7.49984V2.50004H12.4998ZM6.91057 10.5893L8.08908 9.41078L9.99982 11.3215L11.9106 9.41078L13.0891 10.5893L11.1783 12.5L13.0891 14.4108L11.9106 15.5893L9.99982 13.6785L8.08908 15.5893L6.91057 14.4108L8.82131 12.5L6.91057 10.5893Z" fill="black"/>
</svg>
